<svg width="16" height="16" viewBox="0 0 16 16" fill="none" xmlns="http://www.w3.org/2000/svg">
<path d="M11.1111 8.7H8.77778C8.35 8.7 8 9.015 8 9.4V11.5C8 11.885 8.35 12.2 8.77778 12.2H11.1111C11.5389 12.2 11.8889 11.885 11.8889 11.5V9.4C11.8889 9.015 11.5389 8.7 11.1111 8.7ZM11.1111 1.7V2.4H4.88889V1.7C4.88889 1.315 4.53889 1 4.11111 1C3.68333 1 3.33333 1.315 3.33333 1.7V2.4H2.55556C1.69222 2.4 1.00778 3.03 1.00778 3.8L1 13.6C1 14.37 1.69222 15 2.55556 15H13.4444C14.3 15 15 14.37 15 13.6V3.8C15 3.03 14.3 2.4 13.4444 2.4H12.6667V1.7C12.6667 1.315 12.3167 1 11.8889 1C11.4611 1 11.1111 1.315 11.1111 1.7ZM12.6667 13.6H3.33333C2.90556 13.6 2.55556 13.285 2.55556 12.9V5.9H13.4444V12.9C13.4444 13.285 13.0944 13.6 12.6667 13.6Z" fill="#2F3747"/>
</svg>
