<svg width="14" height="12" viewBox="0 0 14 12" fill="none" xmlns="http://www.w3.org/2000/svg">
<path fill-rule="evenodd" clip-rule="evenodd" d="M12.5322 0.185249C12.228 0.219066 11.9493 0.371044 11.7562 0.608425L5.29976 8.8211L2.56014 5.58337C2.46314 5.46471 2.34369 5.36631 2.20861 5.29381C2.07165 5.22031 1.92138 5.17491 1.76663 5.16029C1.61189 5.14567 1.45578 5.16212 1.30747 5.20868C1.15917 5.25523 1.02167 5.33095 0.90304 5.43139C0.784411 5.53183 0.687048 5.65496 0.616671 5.79355C0.546293 5.93215 0.50432 6.0834 0.493215 6.23844C0.482111 6.39348 0.5021 6.54918 0.552008 6.69639C0.601217 6.84153 0.678532 6.97553 0.779518 7.09076L4.17906 11.1084C4.32282 11.2782 4.50257 11.4139 4.70527 11.5057C4.90797 11.5975 5.12855 11.643 5.35102 11.639C5.57349 11.635 5.79229 11.5815 5.99154 11.4825C6.1908 11.3834 6.36557 11.2412 6.5031 11.0663L13.5852 2.05704L13.5902 2.05042C13.7753 1.80671 13.8572 1.50003 13.8183 1.19647C13.7794 0.892915 13.6228 0.6168 13.3822 0.427643C13.1416 0.238485 12.8364 0.151432 12.5322 0.185249Z" fill="#C90B0B"/>
</svg>
