<svg width="145" height="32" viewBox="0 0 145 32" fill="none" xmlns="http://www.w3.org/2000/svg">
<path fill-rule="evenodd" clip-rule="evenodd" d="M2.68194 23.976C2.71412 24.0281 2.74335 24.0755 2.76722 24.1229L12.5375 14.428C11.9269 14.1118 11.3162 13.822 10.6525 13.6376C9.98874 13.4532 9.29845 13.4005 8.60815 13.3478L4.01506 17.9055C3.96602 17.5892 3.93963 17.2729 3.91497 16.9774L3.90886 16.9044C3.88231 16.5882 3.88231 16.2984 3.88231 15.9823C3.88231 15.6398 3.90886 15.271 3.93541 14.9285L3.93542 14.9284C3.96196 14.586 3.98851 14.2435 4.04161 13.9538C4.06072 13.7451 4.10735 13.5365 4.15178 13.3377L4.15179 13.3377C4.16908 13.2604 4.18603 13.1845 4.20091 13.1107C4.25401 12.8473 4.33365 12.5575 4.43985 12.2413C4.54605 11.9252 4.6788 11.5564 4.81155 11.2402C4.9443 10.9241 5.07704 10.608 5.20979 10.3445C5.3026 10.1603 5.40838 9.97616 5.50899 9.80098L5.50904 9.8009L5.50905 9.80088C5.55233 9.72552 5.59466 9.65182 5.63459 9.5805C5.76734 9.3434 5.90009 9.13264 6.03284 8.94822L6.43108 8.39499C6.56383 8.21057 6.69658 8.0525 6.85588 7.86809C7.01518 7.68367 7.22757 7.44656 7.41342 7.26215C7.57413 7.0799 7.73484 6.93705 7.94705 6.74842L8.05061 6.65622C8.31611 6.41912 8.66125 6.12932 9.0064 5.86587C9.3109 5.63345 9.61539 5.44204 9.88343 5.27355L9.98874 5.20725C10.2078 5.06894 10.382 4.97509 10.5562 4.88123L10.5562 4.88123C10.6143 4.84994 10.6724 4.81866 10.7321 4.78573C10.879 4.70475 11.036 4.63372 11.1845 4.56653L11.1845 4.56652C11.2775 4.52443 11.3672 4.48384 11.449 4.44325C11.6879 4.33787 11.8738 4.25884 12.0862 4.1798C12.1924 4.14028 12.2986 4.10735 12.4048 4.07442C12.511 4.04149 12.6172 4.00856 12.7234 3.96904C12.8296 3.94269 12.9424 3.90976 13.0552 3.87683C13.1681 3.8439 13.2809 3.81097 13.3871 3.78463C13.5066 3.75829 13.6128 3.73194 13.7189 3.7056L13.719 3.70559L13.719 3.70559C13.8252 3.67924 13.9314 3.6529 14.0508 3.62656C14.2632 3.57387 14.5287 3.52118 14.7411 3.49483C14.9004 3.47728 15.036 3.45972 15.1717 3.44216L15.1717 3.44216L15.1717 3.44215C15.2396 3.43337 15.3075 3.42458 15.3783 3.41579C15.5907 3.38945 15.8031 3.36311 16.0421 3.36311H16.7589C16.8784 3.36311 16.9979 3.3697 17.1173 3.37628C17.2368 3.38287 17.3563 3.38946 17.4758 3.38946C18.0466 2.91525 18.624 2.44764 19.2015 1.98002L19.2015 1.98001C19.7789 1.51238 20.3564 1.04476 20.9272 0.570548C20.756 0.539652 20.5847 0.499697 20.3974 0.455995C20.2653 0.425169 20.1252 0.392479 19.9714 0.359789C19.6263 0.280754 19.1749 0.201718 18.697 0.149029C18.1926 0.0699939 17.6616 0.043649 17.1306 0.0173042C16.6262 -0.00904074 16.1217 -0.00903913 15.5907 0.0436507L15.5147 0.0508236C14.9802 0.101228 14.4226 0.15381 13.865 0.254411C13.2809 0.35979 12.7234 0.465168 12.1924 0.623237C11.6614 0.781307 11.1569 0.939374 10.5994 1.17648C10.0418 1.38724 9.45775 1.67704 8.9533 1.94049C8.47541 2.20394 8.05061 2.46738 7.62582 2.75717C7.20102 3.02062 6.74968 3.33677 6.35143 3.6529C5.97973 3.9427 5.66114 4.25883 5.28944 4.62766L5.22187 4.69948L5.22186 4.69948C4.86696 5.07659 4.4722 5.49604 4.1478 5.89222C3.80266 6.31374 3.53716 6.68256 3.29822 7.02505C3.08582 7.34119 2.89997 7.63098 2.68757 7.99981C2.47518 8.36864 2.23623 8.8165 2.02383 9.26436C1.81143 9.71223 1.59904 10.1864 1.46629 10.5553C1.38193 10.7896 1.31902 10.9921 1.26392 11.1694C1.23231 11.2711 1.20328 11.3645 1.17424 11.451C1.09459 11.6881 1.04149 11.8725 0.988392 12.0833C0.935293 12.294 0.882194 12.5575 0.829095 12.8473C0.775995 13.1634 0.722896 13.5059 0.669797 13.9011C0.620221 14.27 0.593788 14.639 0.568891 14.9865L0.568891 14.9865L0.563598 15.0602C0.537048 15.4291 0.537048 15.7189 0.537048 16.0087C0.537048 16.2985 0.537048 16.5882 0.563598 16.9307L0.574825 17.0665C0.598105 17.3502 0.624134 17.6673 0.669797 17.9845C0.722896 18.3534 0.775995 18.6958 0.829095 19.012C0.882194 19.3281 0.961842 19.6443 1.04149 19.9604C1.12114 20.2765 1.20079 20.5663 1.30699 20.8825C1.34982 20.9993 1.38833 21.1205 1.426 21.239C1.48175 21.4144 1.53567 21.584 1.59904 21.7255C1.65212 21.844 1.69857 21.956 1.74502 22.0679L1.74503 22.0679L1.74506 22.068C1.79152 22.1799 1.83798 22.2919 1.89108 22.4105C1.94418 22.529 2.00392 22.6476 2.06365 22.7661C2.12339 22.8847 2.18313 23.0032 2.23623 23.1218C2.31027 23.2871 2.39722 23.4524 2.47008 23.5909C2.50172 23.6511 2.53071 23.7062 2.55482 23.7541C2.59866 23.841 2.64249 23.9121 2.6819 23.9759L2.68192 23.976L2.68194 23.976ZM26.6088 6.73525C25.9451 5.89222 25.3079 5.60242 24.3521 5.68146L23.9273 5.78684C23.237 5.9976 22.5467 6.4718 22.2547 7.63098C22.122 8.57939 22.8122 10.8187 25.361 10.2918C26.6354 9.89664 27.5912 8.31595 26.6088 6.73525ZM18.0864 6.07663C19.0156 5.10187 19.5201 4.60132 20.3962 3.91636C21.5324 3.06548 22.4262 2.59247 23.0777 2.2477C23.2331 2.16547 23.3747 2.09054 23.5025 2.01952C24.4318 1.62435 24.9097 1.46627 25.8124 1.17648C26.9805 0.807652 28.5735 0.649588 29.5028 0.596898C30.4586 0.570553 31.7329 0.62324 31.9984 0.675929C32.0781 0.965723 32.1046 2.33566 32.1046 2.57276C32.1046 3.1787 32.0781 3.75828 31.9719 4.54863C31.8922 5.18091 31.8126 5.62877 31.6533 6.2874C31.4337 7.09373 31.2504 7.61163 31.0583 8.15425L31.058 8.15519L31.0571 8.1577C31.0174 8.26992 30.9773 8.38321 30.9365 8.50037C30.7506 9.00092 30.3258 9.8703 30.0338 10.3445C29.37 11.5037 28.839 12.1623 28.2815 12.8473C27.8301 13.4269 27.1133 14.0855 26.5823 14.5597C26.5557 15.4291 26.5292 15.7452 26.2903 16.9044C26.1044 17.5367 25.9451 17.9318 25.6 18.6431C25.361 19.0647 25.1752 19.3545 24.9097 19.7496C24.6707 20.0658 24.2459 20.5663 23.9273 20.8298C23.816 20.9245 23.7237 21.0073 23.6391 21.0833C23.4412 21.2611 23.285 21.4013 23.0246 21.5674C22.7326 21.7518 22.1485 22.1207 21.6175 22.3841C21.5379 21.7255 21.3786 20.8034 21.2724 20.3819C21.0069 19.3545 20.5555 18.2216 19.9714 17.2205C19.6794 16.72 19.1484 15.956 18.6439 15.35C18.5553 15.2541 18.4789 15.1703 18.4096 15.0942C18.2503 14.9196 18.1282 14.7855 17.9802 14.6387C17.842 14.4844 17.6925 14.3524 17.5025 14.1847C17.4006 14.0946 17.287 13.9943 17.1572 13.8747C16.3341 13.2424 15.6173 12.7419 14.7146 12.2677L14.6057 12.2164C14.1607 12.0067 13.8347 11.8531 13.1216 11.6091C13.025 11.5796 12.9451 11.5542 12.8672 11.5295L12.8672 11.5295C12.6668 11.4659 12.4803 11.4068 12.0596 11.2929C11.9579 11.2727 11.8666 11.2543 11.7773 11.2362L11.7771 11.2362L11.777 11.2362C11.5167 11.1835 11.2731 11.1343 10.8383 11.0558L10.148 10.9768C10.4401 10.3972 10.9711 9.55416 11.2366 9.26437C11.6348 8.8165 11.9003 8.55305 12.2986 8.18422C12.4781 8.05465 12.6075 7.95495 12.7299 7.86064L12.7299 7.86063L12.7299 7.86061L12.7299 7.8606L12.7301 7.86044C12.8067 7.80142 12.8806 7.74449 12.9623 7.68367L13.5995 7.26215C14.0811 6.9505 14.414 6.81909 14.6505 6.72578C14.7138 6.70077 14.7703 6.6785 14.8208 6.65622C16.2416 6.13051 17.1819 6.10332 17.8794 6.08314L17.8794 6.08314L17.8795 6.08314C17.9509 6.08107 18.0198 6.07908 18.0864 6.07663ZM8.44886 29.7607C8.49659 29.7844 8.54433 29.8134 8.59688 29.8453C8.66125 29.8844 8.73286 29.9279 8.82055 29.9714C8.97985 30.0505 9.2188 30.1822 9.45774 30.3139C9.57722 30.3666 9.69669 30.4259 9.81616 30.4852L9.81618 30.4852C9.93565 30.5445 10.0551 30.6037 10.1746 30.6564C10.294 30.7091 10.4068 30.7552 10.5196 30.8012L10.5197 30.8013L10.5199 30.8014C10.6327 30.8475 10.7455 30.8935 10.8649 30.9462C11.1038 31.0516 11.4224 31.157 11.7145 31.236C12.0331 31.3414 12.3251 31.4204 12.6437 31.4994L12.6439 31.4995C12.9624 31.5785 13.281 31.6575 13.5995 31.7102C13.9181 31.7629 14.2632 31.8156 14.6349 31.8683C14.9546 31.9136 15.2742 31.9394 15.5601 31.9625L15.5603 31.9625L15.6969 31.9737C16.042 32 16.334 32 16.626 32H16.6262H16.6264C16.9183 32 17.2103 32 17.582 31.9737L17.656 31.9684L17.6561 31.9684C18.0064 31.9437 18.3783 31.9175 18.7501 31.8683C19.1484 31.8156 19.4935 31.7629 19.8121 31.7102C20.1042 31.6575 20.3697 31.6048 20.5821 31.5521C20.7945 31.4995 20.9803 31.4468 21.2193 31.3677C21.3064 31.3389 21.4005 31.3101 21.5031 31.2787C21.6817 31.2241 21.8858 31.1616 22.122 31.0779C22.4936 30.9462 22.9715 30.7355 23.4229 30.5247C23.8742 30.3139 24.3256 30.0768 24.6973 29.8661C25.069 29.6553 25.361 29.4709 25.6796 29.2601C26.0248 29.023 26.3965 28.7596 26.8212 28.4171C27.2204 28.0953 27.6431 27.7036 28.023 27.3515L28.0231 27.3515L28.0956 27.2843C28.4673 26.9154 28.7859 26.5993 29.078 26.2305C29.3966 25.8353 29.7152 25.3874 29.9807 24.9659C30.2727 24.5444 30.5382 24.1229 30.8037 23.6487C31.0692 23.1481 31.3612 22.5685 31.5736 22.0153C31.8126 21.462 31.9719 20.9615 32.1312 20.4346C32.2905 19.9077 32.3967 19.3545 32.5029 18.7749C32.6043 18.2216 32.6573 17.6683 32.7081 17.1379L32.7153 17.0625C32.7684 16.5356 32.7684 16.035 32.7418 15.5344C32.7153 15.0075 32.6887 14.4806 32.6091 13.9801C32.556 13.5059 32.4763 13.058 32.3967 12.7155C32.3637 12.563 32.3308 12.424 32.2997 12.2929C32.2557 12.107 32.2154 11.9371 32.1843 11.7671C31.7064 12.3335 31.2352 12.9065 30.764 13.4794L30.7639 13.4795C30.2926 14.0525 29.8214 14.6255 29.3435 15.192C29.3435 15.3105 29.3501 15.4291 29.3567 15.5476C29.3634 15.6662 29.37 15.7847 29.37 15.9033V16.6146C29.37 16.8517 29.3435 17.0624 29.3169 17.2732C29.3081 17.3435 29.2992 17.4108 29.2904 17.4781C29.2727 17.6128 29.255 17.7474 29.2373 17.9055C29.2107 18.1162 29.1576 18.3797 29.1045 18.5905C29.078 18.709 29.0514 18.8144 29.0249 18.9198C28.9983 19.0251 28.9718 19.1305 28.9452 19.2491C28.9187 19.3545 28.8855 19.4664 28.8523 19.5784C28.8191 19.6903 28.7859 19.8023 28.7594 19.9077C28.7196 20.0131 28.6864 20.1185 28.6532 20.2238C28.62 20.3292 28.5868 20.4346 28.547 20.54C28.4673 20.7507 28.3877 20.9352 28.2815 21.1723C28.2406 21.2534 28.1997 21.3424 28.1573 21.4347C28.0895 21.582 28.018 21.7378 27.9363 21.8836C27.9032 21.9427 27.8718 22.0002 27.8403 22.0577L27.8401 22.0581C27.7455 22.231 27.6509 22.4039 27.5115 22.6212L27.4447 22.7257L27.4447 22.7257C27.2749 22.9917 27.082 23.2938 26.8478 23.596C26.5823 23.9385 26.2903 24.2809 26.0513 24.5444L25.9584 24.6471L25.9584 24.6471C25.7683 24.8577 25.6243 25.0172 25.4407 25.1767C25.3378 25.266 25.2349 25.3615 25.1351 25.4542L25.135 25.4542L25.135 25.4543C25.0287 25.5529 24.9258 25.6484 24.83 25.7299C24.6442 25.888 24.4849 26.0197 24.299 26.1514L23.7415 26.5466C23.5556 26.6783 23.3432 26.8101 23.1043 26.9418C23.0324 26.9814 22.9582 27.0234 22.8822 27.0663C22.7056 27.1662 22.52 27.2712 22.3343 27.3633C22.0689 27.495 21.7503 27.6267 21.4318 27.7584L21.4317 27.7584L21.4317 27.7585C21.1131 27.8902 20.7414 28.0219 20.4228 28.1273C20.1042 28.2327 19.8121 28.3117 19.5466 28.3644C19.2812 28.4171 18.9891 28.4698 18.6971 28.5225L18.697 28.5225C18.405 28.5752 18.06 28.6015 17.7149 28.6278L17.7148 28.6278L17.7147 28.6279C17.3696 28.6542 16.9979 28.6805 16.6527 28.6805C16.3341 28.6805 16.0421 28.6805 15.7235 28.6542L15.6498 28.6481L15.6498 28.6481C15.352 28.6237 15.0333 28.5975 14.7146 28.5488C15.4845 27.798 16.2479 27.0406 17.0112 26.2831C17.7745 25.5257 18.5378 24.7683 19.3077 24.0175C19.2546 23.3325 19.2015 22.6476 19.0156 21.9889C18.8298 21.3303 18.5377 20.7244 18.2191 20.1185C14.9801 23.2798 11.7145 26.5203 8.44886 29.7607ZM14.4491 15.7716L1.25389 28.865C0.616695 29.4972 0.616695 30.5774 1.25389 31.236C1.91763 31.8946 2.97962 31.8946 3.64336 31.236L16.8386 18.1426C17.0244 17.9582 17.0244 17.6684 16.8386 17.484L15.1128 15.7716C14.927 15.5871 14.6349 15.5871 14.4491 15.7716Z" fill="#C90B0B"/>
<path d="M60.4002 26.2484H54.5747L50.873 19.4958H48.9311V26.2484H43.5V5.33334H51.9956C54.16 5.33334 55.9704 6.02055 57.4268 7.39497C58.9034 8.72955 59.6417 10.4525 59.6417 12.564C59.6417 13.799 59.3181 14.9443 58.6708 16C58.0235 17.0557 57.1436 17.8923 56.0311 18.5098L60.4002 26.2484ZM51.935 10.2633H48.9311V14.9543H51.935C52.6025 14.9742 53.1486 14.765 53.5734 14.3268C53.9982 13.8886 54.2106 13.3209 54.2106 12.6237C54.2106 11.9266 53.9982 11.3589 53.5734 10.9206C53.1486 10.4824 52.6025 10.2633 51.935 10.2633Z" fill="#C90B0B"/>
<path d="M72.0431 12.6835V11.3091H77.0798V26.2484H72.0431V24.874C71.0115 26.0691 69.5753 26.6667 67.7346 26.6667C65.6916 26.6667 63.9925 25.9197 62.6372 24.4258C61.282 22.9119 60.6043 21.0296 60.6043 18.7787C60.6043 16.5079 61.282 14.6356 62.6372 13.1615C63.9925 11.6477 65.6916 10.8908 67.7346 10.8908C69.5753 10.8908 71.0115 11.4883 72.0431 12.6835ZM66.5513 21.1391C67.1177 21.7367 67.8863 22.0355 68.8572 22.0355C69.8282 22.0355 70.5968 21.7367 71.1632 21.1391C71.7498 20.5216 72.0431 19.7348 72.0431 18.7787C72.0431 17.8226 71.7498 17.0358 71.1632 16.4183C70.5968 15.8207 69.8282 15.522 68.8572 15.522C67.8863 15.522 67.1177 15.8207 66.5513 16.4183C65.9647 17.0358 65.6714 17.8226 65.6714 18.7787C65.6714 19.7348 65.9647 20.5216 66.5513 21.1391Z" fill="#C90B0B"/>
<path d="M89.6787 18.7787L94.9884 26.2484H89.3449L85.0364 19.8842V26.2484H79.9997V5.33334H85.0364V17.5537L88.9505 11.3091H94.776L89.6787 18.7787Z" fill="#C90B0B"/>
<path d="M110.425 20.6013H99.9573C100.463 21.8164 101.596 22.4239 103.356 22.4239C104.428 22.4239 105.348 22.0753 106.117 21.3782L109.758 23.888C108.281 25.7404 106.107 26.6667 103.234 26.6667C100.665 26.6667 98.6021 25.9297 97.0446 24.4557C95.5072 22.9617 94.7386 21.0794 94.7386 18.8086C94.7386 16.5577 95.4971 14.6754 97.0142 13.1615C98.5313 11.6477 100.463 10.8908 102.809 10.8908C105.075 10.8908 106.946 11.6377 108.423 13.1317C109.899 14.6057 110.638 16.4781 110.638 18.7488C110.638 19.446 110.567 20.0635 110.425 20.6013ZM99.8967 17.1653H105.722C105.338 15.7709 104.387 15.0738 102.87 15.0738C101.313 15.0738 100.321 15.7709 99.8967 17.1653Z" fill="#C90B0B"/>
<path d="M121.821 11.3091V16.0598H118.666V20.3922C118.666 21.0296 118.888 21.4379 119.333 21.6172C119.799 21.7765 120.628 21.8263 121.821 21.7666V26.2484C118.828 26.6069 116.704 26.338 115.45 25.4417C114.236 24.5055 113.629 22.8621 113.629 20.5117V16.0598H111.353V11.3091H113.629V8.61999L118.666 7.12606V11.3091H121.821Z" fill="#C90B0B"/>
<path d="M134.593 12.6835V11.3091H139.63V26.2484H134.593V24.874C133.561 26.0691 132.125 26.6667 130.284 26.6667C128.241 26.6667 126.542 25.9197 125.187 24.4258C123.832 22.9119 123.154 21.0296 123.154 18.7787C123.154 16.5079 123.832 14.6356 125.187 13.1615C126.542 11.6477 128.241 10.8908 130.284 10.8908C132.125 10.8908 133.561 11.4883 134.593 12.6835ZM129.101 21.1391C129.667 21.7367 130.436 22.0355 131.407 22.0355C132.378 22.0355 133.147 21.7367 133.713 21.1391C134.3 20.5216 134.593 19.7348 134.593 18.7787C134.593 17.8226 134.3 17.0358 133.713 16.4183C133.147 15.8207 132.378 15.522 131.407 15.522C130.436 15.522 129.667 15.8207 129.101 16.4183C128.515 17.0358 128.221 17.8226 128.221 18.7787C128.221 19.7348 128.515 20.5216 129.101 21.1391Z" fill="#C90B0B"/>
</svg>
