<svg width="16" height="18" viewBox="0 0 16 18" fill="none" xmlns="http://www.w3.org/2000/svg">
<path fill-rule="evenodd" clip-rule="evenodd" d="M7.57447 3.15969C7.80846 2.94677 8.18783 2.94677 8.42182 3.15969L10.8245 5.34597C11.0585 5.55889 11.0585 5.90409 10.8245 6.11701C10.5905 6.32993 10.2111 6.32993 9.97716 6.11701L8.59734 4.86147V13.1419L9.97716 11.8864C10.2111 11.6734 10.5905 11.6734 10.8245 11.8864C11.0585 12.0993 11.0585 12.4445 10.8245 12.6574L8.42553 14.8403C8.31317 14.9426 8.16077 15 8.00186 15C7.84295 15 7.69055 14.9426 7.57818 14.8403L5.17552 12.654C4.94153 12.4411 4.94153 12.0959 5.17552 11.883C5.40952 11.6701 5.78889 11.6701 6.02287 11.883L7.39901 13.1352V4.86141L6.02284 6.11363C5.78885 6.32655 5.40948 6.32655 5.17549 6.11363C4.9415 5.90071 4.9415 5.55551 5.17549 5.34259L7.57447 3.15969Z" fill="#9EA6B4"/>
</svg>
